<svg width="22" height="24" viewBox="0 0 22 24" fill="none" xmlns="http://www.w3.org/2000/svg">
<path d="M2.59 1.322L5.434 0L9.475 7.89L6.75 9.231C6.212 10.49 8.909 15.52 10.047 15.603C10.137 15.545 12.718 14.275 12.718 14.275L16.828 22.207C16.828 22.207 14.064 23.561 13.974 23.603C6.113 27.194 -5.127 5.345 2.59 1.322V1.322ZM4.52 2.596L3.497 3.1C-1.797 5.862 7.674 24.285 13.145 21.786L14.116 21.312L11.845 16.929L10.819 17.429C7.656 18.976 2.557 9.21 5.764 7.491L6.771 6.994L4.52 2.596V2.596ZM12.352 10.245L15.269 11.115C15.492 10.368 15.429 9.536 15.029 8.798C14.63 8.059 13.967 7.551 13.221 7.329L12.352 10.245V10.245ZM14.156 4.186C15.707 4.648 17.082 5.702 17.912 7.237C18.743 8.773 18.872 10.5 18.41 12.05L16.615 11.515C16.94 10.424 16.848 9.209 16.263 8.128C15.68 7.047 14.712 6.306 13.62 5.982L14.156 4.186V4.186ZM15.106 1C17.471 1.705 19.569 3.312 20.835 5.656C22.104 7.999 22.301 10.634 21.596 13L19.756 12.452C20.32 10.557 20.162 8.446 19.148 6.57C18.132 4.693 16.452 3.405 14.557 2.841L15.106 1V1Z" fill="black"/>
</svg>
